<svg width="479" height="479" viewBox="0 0 479 479" fill="none" xmlns="http://www.w3.org/2000/svg">
<g clip-path="url(#clip0)">
<path d="M454.2 189.101L420.6 183.401C417.1 172.101 412.6 161.201 407.1 150.801L426.9 123.101C435.3 111.301 434 95.201 423.7 85.001L393.9 55.201C388.3 49.601 380.9 46.501 373 46.501C366.8 46.501 360.9 48.401 355.9 52.001L328.1 71.801C317.3 66.101 306 61.401 294.3 57.901L288.7 24.701C286.3 10.401 274 0.00100708 259.5 0.00100708H217.4C202.9 0.00100708 190.6 10.401 188.2 24.701L182.4 58.701C171.2 62.201 160.3 66.801 149.9 72.401L122.4 52.601C117.4 49.001 111.4 47.101 105.2 47.101C97.3 47.101 89.8 50.201 84.3 55.801L54.4 85.601C44.2 95.801 42.8 111.901 51.2 123.701L71.2 151.801C65.7 162.301 61.3 173.201 57.9 184.501L24.7 190.101C10.4 192.501 0 204.801 0 219.301V261.401C0 275.901 10.4 288.201 24.7 290.601L58.7 296.401C62.2 307.601 66.8 318.501 72.4 328.901L52.7 356.301C44.3 368.101 45.6 384.201 55.9 394.401L85.7 424.201C91.3 429.801 98.7 432.901 106.6 432.901C112.8 432.901 118.7 431.001 123.7 427.401L151.8 407.401C161.9 412.701 172.5 417.001 183.4 420.401L189 454.001C191.4 468.301 203.7 478.701 218.2 478.701H260.4C274.9 478.701 287.2 468.301 289.6 454.001L295.3 420.401C306.6 416.901 317.5 412.401 327.9 406.901L355.6 426.701C360.6 430.301 366.6 432.201 372.8 432.201C380.7 432.201 388.1 429.101 393.7 423.501L423.5 393.701C433.7 383.501 435.1 367.401 426.7 355.601L406.9 327.801C412.4 317.301 417 306.401 420.4 295.201L454 289.601C468.3 287.201 478.7 274.901 478.7 260.401V218.301C478.9 203.801 468.5 191.501 454.2 189.101ZM451.9 260.401C451.9 261.701 451 262.801 449.7 263.001L407.7 270.001C402.4 270.901 398.2 274.801 396.9 279.901C393.1 294.601 387.3 308.701 379.5 321.801C376.8 326.401 377 332.101 380.1 336.501L404.8 371.301C405.5 372.301 405.4 373.801 404.5 374.701L374.7 404.501C374 405.201 373.3 405.301 372.8 405.301C372.2 405.301 371.7 405.101 371.3 404.801L336.6 380.101C332.3 377.001 326.5 376.801 321.9 379.501C308.8 387.301 294.7 393.101 280 396.901C274.8 398.201 270.9 402.501 270.1 407.701L263 449.701C262.8 451.001 261.7 451.901 260.4 451.901H218.3C217 451.901 215.9 451.001 215.7 449.701L208.7 407.701C207.8 402.401 203.9 398.201 198.8 396.901C184.5 393.201 170.7 387.501 157.8 380.101C155.7 378.901 153.3 378.301 151 378.301C148.3 378.301 145.5 379.101 143.2 380.801L108.2 405.701C107.7 406.001 107.2 406.201 106.7 406.201C106.3 406.201 105.5 406.101 104.8 405.401L75 375.601C74.1 374.701 74 373.301 74.7 372.201L99.3 337.701C102.4 333.301 102.6 327.501 99.9 322.901C92.1 309.901 86.1 295.801 82.3 281.101C80.9 276.001 76.7 272.101 71.5 271.201L29.2 264.001C27.9 263.801 27 262.701 27 261.401V219.301C27 218.001 27.9 216.901 29.2 216.701L70.9 209.701C76.2 208.801 80.5 204.901 81.8 199.701C85.5 185.001 91.2 170.801 98.9 157.701C101.6 153.101 101.3 147.401 98.2 143.101L73.3 108.101C72.6 107.101 72.7 105.601 73.6 104.701L103.4 74.901C104.1 74.201 104.8 74.101 105.3 74.101C105.9 74.101 106.4 74.301 106.8 74.601L141.3 99.201C145.7 102.301 151.5 102.501 156.1 99.801C169.1 92.001 183.2 86.001 197.9 82.201C203 80.801 206.9 76.601 207.8 71.401L215 29.101C215.2 27.801 216.3 26.901 217.6 26.901H259.7C261 26.901 262.1 27.801 262.3 29.101L269.3 70.801C270.2 76.101 274.1 80.401 279.3 81.701C294.4 85.501 308.8 91.401 322.2 99.301C326.8 102.001 332.5 101.801 336.9 98.701L371.4 73.901C371.9 73.601 372.4 73.401 372.9 73.401C373.3 73.401 374.1 73.501 374.8 74.201L404.6 104.001C405.5 104.901 405.6 106.301 404.9 107.401L380.2 142.101C377.1 146.401 376.9 152.201 379.6 156.801C387.4 169.901 393.2 184.001 397 198.701C398.3 203.901 402.6 207.801 407.8 208.601L449.8 215.701C451.1 215.901 452 217.001 452 218.301V260.401H451.9Z" fill="#003049"/>
<path d="M239.4 136.001C182.4 136.001 136.1 182.301 136.1 239.301C136.1 296.301 182.4 342.601 239.4 342.601C296.4 342.601 342.7 296.301 342.7 239.301C342.7 182.301 296.4 136.001 239.4 136.001ZM239.4 315.601C197.3 315.601 163.1 281.401 163.1 239.301C163.1 197.201 197.3 163.001 239.4 163.001C281.5 163.001 315.7 197.201 315.7 239.301C315.7 281.401 281.5 315.601 239.4 315.601Z" fill="#003049"/>
<path d="M207 74L150 100L104 61L62 100L87 158L74 198L19 205V269L74 285L94 332L62 371L104 409L150 391L201 409L207 457H262L284 409L336 391L378 409L416 371L390 323L404 280L456 269L461 215L404 205L390 158L416 107L404 87L372 74L336 100L275 80L262 26H216L207 74Z" stroke="#003049"/>
<path d="M102 60L159 102L193 157L153 196V259L186 316L271 330L328 265L313 182L210 138L203 65L216 15H271L287 65L336 84L375 60L422 102L395 152L410 196L467 208V272L416 279L395 325L416 370L375 421L328 392L287 406L271 464H210L193 415L153 392L111 421L60 392L83 325L72 279L12 272V208L72 196L95 152L60 102L102 60Z" fill="#003049" stroke="#003049"/>
<rect x="156" y="75" width="93" height="76" fill="#003049"/>
</g>
<defs>
<clipPath id="clip0">
<rect width="478.703" height="478.703" fill="white"/>
</clipPath>
</defs>
</svg>
